<mxfile host="65bd71144e">
    <diagram id="woBObCVOX6_ovj5UqUiK" name="Page-1">
        <mxGraphModel dx="185" dy="153" grid="1" gridSize="10" guides="1" tooltips="1" connect="1" arrows="1" fold="1" page="1" pageScale="1" pageWidth="850" pageHeight="1100" math="0" shadow="0">
            <root>
                <mxCell id="0"/>
                <mxCell id="1" parent="0"/>
                <mxCell id="6" value="" style="edgeStyle=orthogonalEdgeStyle;shape=connector;rounded=0;html=1;labelBackgroundColor=default;strokeColor=#808080;fontFamily=Noto Sans;fontSize=12;fontColor=#808080;endArrow=none;endFill=0;startArrow=diamondThin;startFill=0;fontSource=https%3A%2F%2Ffonts.googleapis.com%2Fcss%3Ffamily%3DNoto%2BSans;" edge="1" parent="1" source="2" target="5">
                    <mxGeometry relative="1" as="geometry"/>
                </mxCell>
                <mxCell id="13" value="1" style="edgeLabel;align=center;verticalAlign=bottom;resizable=0;points=[];fontSize=12;fontFamily=Noto Sans;fontColor=#808080;labelBackgroundColor=none;html=1;" vertex="1" connectable="0" parent="6">
                    <mxGeometry x="-0.6807" relative="1" as="geometry">
                        <mxPoint as="offset"/>
                    </mxGeometry>
                </mxCell>
                <mxCell id="14" value="*" style="edgeLabel;align=center;verticalAlign=bottom;resizable=0;points=[];fontSize=12;fontFamily=Noto Sans;fontColor=#808080;labelBackgroundColor=none;html=1;" vertex="1" connectable="0" parent="6">
                    <mxGeometry x="0.74" relative="1" as="geometry">
                        <mxPoint as="offset"/>
                    </mxGeometry>
                </mxCell>
                <mxCell id="2" value="SharedVerex" style="rounded=0;whiteSpace=wrap;html=1;fillColor=none;strokeColor=#808080;fontColor=#808080;fontFamily=Noto Sans;fontSource=https%3A%2F%2Ffonts.googleapis.com%2Fcss%3Ffamily%3DNoto%2BSans;" vertex="1" parent="1">
                    <mxGeometry x="360" y="360" width="80" height="40" as="geometry"/>
                </mxCell>
                <mxCell id="4" style="edgeStyle=orthogonalEdgeStyle;html=1;fontFamily=Noto Sans;fontSize=12;fontColor=#808080;endArrow=none;endFill=0;rounded=0;strokeColor=#808080;fontSource=https%3A%2F%2Ffonts.googleapis.com%2Fcss%3Ffamily%3DNoto%2BSans;" edge="1" parent="1" source="3" target="2">
                    <mxGeometry relative="1" as="geometry"/>
                </mxCell>
                <mxCell id="11" value="2" style="edgeLabel;align=left;verticalAlign=middle;resizable=0;points=[];fontSize=12;fontFamily=Noto Sans;fontColor=#808080;labelBackgroundColor=none;fontSource=https%3A%2F%2Ffonts.googleapis.com%2Fcss%3Ffamily%3DNoto%2BSans;html=1;" vertex="1" connectable="0" parent="4">
                    <mxGeometry x="0.6218" y="-1" relative="1" as="geometry">
                        <mxPoint x="-1" y="-1" as="offset"/>
                    </mxGeometry>
                </mxCell>
                <mxCell id="12" value="*" style="edgeLabel;align=left;verticalAlign=middle;resizable=0;points=[];fontSize=12;fontFamily=Noto Sans;fontColor=#808080;labelBackgroundColor=none;fontSource=https%3A%2F%2Ffonts.googleapis.com%2Fcss%3Ffamily%3DNoto%2BSans;html=1;" vertex="1" connectable="0" parent="4">
                    <mxGeometry x="-0.6667" relative="1" as="geometry">
                        <mxPoint as="offset"/>
                    </mxGeometry>
                </mxCell>
                <mxCell id="8" value="" style="edgeStyle=orthogonalEdgeStyle;shape=connector;rounded=0;html=1;labelBackgroundColor=default;strokeColor=#808080;fontFamily=Noto Sans;fontSize=12;fontColor=#808080;startArrow=diamondThin;startFill=0;endArrow=none;endFill=0;fontSource=https%3A%2F%2Ffonts.googleapis.com%2Fcss%3Ffamily%3DNoto%2BSans;" edge="1" parent="1" source="3" target="7">
                    <mxGeometry relative="1" as="geometry"/>
                </mxCell>
                <mxCell id="15" value="1" style="edgeLabel;align=center;verticalAlign=bottom;resizable=0;points=[];fontSize=12;fontFamily=Noto Sans;fontColor=#808080;labelBackgroundColor=none;html=1;" vertex="1" connectable="0" parent="8">
                    <mxGeometry x="-0.694" y="1" relative="1" as="geometry">
                        <mxPoint x="1" y="1" as="offset"/>
                    </mxGeometry>
                </mxCell>
                <mxCell id="16" value="*" style="edgeLabel;align=center;verticalAlign=bottom;resizable=0;points=[];fontSize=12;fontFamily=Noto Sans;fontColor=#808080;labelBackgroundColor=none;html=1;" vertex="1" connectable="0" parent="8">
                    <mxGeometry x="0.7917" relative="1" as="geometry">
                        <mxPoint x="-2" as="offset"/>
                    </mxGeometry>
                </mxCell>
                <mxCell id="3" value="SharedEdge" style="rounded=0;whiteSpace=wrap;html=1;fillColor=none;strokeColor=#808080;fontColor=#808080;fontFamily=Noto Sans;fontSource=https%3A%2F%2Ffonts.googleapis.com%2Fcss%3Ffamily%3DNoto%2BSans;" vertex="1" parent="1">
                    <mxGeometry x="360" y="460" width="80" height="40" as="geometry"/>
                </mxCell>
                <mxCell id="5" value="Vertex" style="rounded=0;whiteSpace=wrap;html=1;fillColor=none;strokeColor=#808080;fontColor=#808080;fontFamily=Noto Sans;fontSource=https%3A%2F%2Ffonts.googleapis.com%2Fcss%3Ffamily%3DNoto%2BSans;" vertex="1" parent="1">
                    <mxGeometry x="500" y="360" width="80" height="40" as="geometry"/>
                </mxCell>
                <mxCell id="10" style="edgeStyle=orthogonalEdgeStyle;shape=connector;rounded=0;html=1;labelBackgroundColor=default;strokeColor=#808080;fontFamily=Noto Sans;fontSize=12;fontColor=#808080;startArrow=none;startFill=0;endArrow=none;endFill=0;fontSource=https%3A%2F%2Ffonts.googleapis.com%2Fcss%3Ffamily%3DNoto%2BSans;" edge="1" parent="1" source="7" target="5">
                    <mxGeometry relative="1" as="geometry"/>
                </mxCell>
                <mxCell id="17" value="2" style="edgeLabel;align=left;verticalAlign=middle;resizable=0;points=[];fontSize=12;fontFamily=Noto Sans;fontColor=#808080;labelBackgroundColor=none;html=1;" vertex="1" connectable="0" parent="10">
                    <mxGeometry x="0.6714" relative="1" as="geometry">
                        <mxPoint y="3" as="offset"/>
                    </mxGeometry>
                </mxCell>
                <mxCell id="18" value="1" style="edgeLabel;align=left;verticalAlign=middle;resizable=0;points=[];fontSize=12;fontFamily=Noto Sans;fontColor=#808080;labelBackgroundColor=none;html=1;" vertex="1" connectable="0" parent="10">
                    <mxGeometry x="-0.6273" relative="1" as="geometry">
                        <mxPoint y="-3" as="offset"/>
                    </mxGeometry>
                </mxCell>
                <mxCell id="7" value="Edge" style="rounded=0;whiteSpace=wrap;html=1;fillColor=none;strokeColor=#808080;fontColor=#808080;fontFamily=Noto Sans;fontSource=https%3A%2F%2Ffonts.googleapis.com%2Fcss%3Ffamily%3DNoto%2BSans;" vertex="1" parent="1">
                    <mxGeometry x="500" y="460" width="80" height="40" as="geometry"/>
                </mxCell>
            </root>
        </mxGraphModel>
    </diagram>
</mxfile>